<svg version="1.1" id="Layer_1" xmlns="http://www.w3.org/2000/svg" xmlns:xlink="http://www.w3.org/1999/xlink" x="0px" y="0px"
	 width="150px" height="150px" viewBox="0 0 1024 1024" enable-background="new 0 0 1024 1024" xml:space="preserve">
<path fill="#000000" opacity="1.000000" stroke="none"
	d="
M753.695496,362.864441
	C766.665527,369.197144 772.167664,380.432526 768.169556,392.568054
	C766.063599,398.960236 761.632629,403.193390 755.592590,405.977905
	C743.965759,411.337891 741.702759,416.631836 746.723694,428.542786
	C750.960693,438.594055 755.857910,448.367004 760.154907,457.601196
	C768.419983,457.021667 776.290894,455.814941 784.120911,456.038788
	C811.785767,456.829865 833.677429,479.778717 834.273071,507.370514
	C834.809998,532.245056 822.753052,550.146912 802.758423,562.569885
	C793.620300,568.247559 790.252625,573.322998 791.302673,584.477600
	C794.335205,616.692139 790.104980,648.468872 780.982544,679.515564
	C769.614319,718.205200 749.925415,752.000366 720.602478,779.850037
	C712.668091,787.385803 703.846252,793.987000 694.789246,801.553955
	C695.832886,804.783020 697.147827,808.820801 698.443054,812.864990
	C702.075684,824.208008 705.774292,835.530640 709.306641,846.904846
	C712.762878,858.033752 711.131226,864.540771 703.998291,869.107056
	C695.642456,874.456177 683.986633,873.590393 676.809753,866.367859
	C672.392578,861.922729 668.684814,856.726257 664.980164,851.633118
	C661.663940,847.073975 658.653564,842.275085 655.756775,837.433289
	C652.952148,832.745483 650.464355,827.868225 647.575806,822.596924
	C611.045166,837.478333 572.785278,843.425720 532.826172,844.158264
	C532.826172,851.228699 532.991089,858.154968 532.785522,865.070251
	C532.511902,874.276550 528.069397,880.140869 519.639893,882.988464
	C511.541260,885.724304 502.491211,883.725586 497.690735,876.949402
	C495.263580,873.523254 493.937897,868.846802 493.496857,864.592285
	C492.814606,858.011108 493.316956,851.307068 493.316956,844.195312
	C453.811157,843.394409 415.459534,837.797607 378.456268,822.404663
	C376.965729,824.931458 375.610382,827.522522 373.986359,829.932556
	C366.018433,841.757019 358.271179,853.747620 349.843384,865.237488
	C345.545288,871.097229 338.805847,872.963196 331.547821,872.322144
	C319.350037,871.244934 312.621307,862.093933 316.016571,850.311890
	C320.593384,834.429626 325.727997,818.708252 330.619324,802.916565
	C330.809601,802.302246 330.959015,801.675293 331.168823,800.901672
	C313.390503,789.249512 298.208069,774.893921 285.036163,758.414612
	C262.123291,729.748352 247.841904,697.046265 239.898819,661.389099
	C233.405746,632.241089 231.925064,602.821228 235.108322,573.174133
	C235.468399,569.820740 233.364944,569.185974 231.468231,568.195801
	C216.773239,560.524231 204.792053,549.974609 197.517609,534.908508
	C186.286041,511.646759 189.375076,479.739685 216.584106,462.987244
	C230.393738,454.484680 245.468521,454.256958 260.852509,457.576691
	C262.128174,457.851990 263.399628,458.146637 265.301025,458.573151
	C270.193848,447.626007 275.528137,436.811218 279.872162,425.612274
	C283.256866,416.886444 280.418701,411.102203 271.804260,406.965149
	C264.210785,403.318359 258.470551,398.306183 256.877991,389.605042
	C254.815430,378.335907 260.404053,367.779816 270.982330,363.167877
	C273.106171,362.241913 275.375946,361.650665 278.324219,360.947266
	C283.798126,361.684601 288.513397,362.847565 293.257019,362.977722
	C303.246796,363.251831 313.251617,362.916931 323.249908,362.949921
	C427.903198,363.295105 532.556519,363.631012 637.209473,364.058899
	C654.022339,364.127625 668.961853,368.720001 679.744507,382.825043
	C692.173828,399.084167 694.332642,417.264893 690.480713,436.733978
	C688.583069,446.325256 686.292664,455.891846 685.239746,465.584717
	C683.709106,479.675659 691.996765,493.239960 703.352295,496.890656
	C722.085571,502.913208 741.078064,489.700684 741.054443,469.680145
	C741.044250,461.066711 738.433533,452.398346 736.539856,443.857910
	C733.246521,429.004639 728.169189,414.462097 730.941284,398.805176
	C733.627502,383.632599 740.942383,371.572998 753.695496,362.864441
M791.479675,484.838165
	C784.188660,482.314667 776.950928,482.485931 770.269165,484.688782
	C775.769104,503.361542 781.152527,521.638550 786.610168,540.167847
	C798.357239,533.460815 807.684265,524.784729 808.004333,509.883087
	C808.253601,498.275757 802.605347,490.086639 791.479675,484.838165
M240.004608,483.361237
	C236.309769,484.724457 232.206512,485.464569 228.997055,487.568298
	C219.551117,493.759705 216.395096,502.955719 218.139511,513.904419
	C220.173737,526.672058 228.137283,534.622681 238.821304,539.914368
	C244.291092,521.400024 249.651993,503.254181 255.312973,484.092651
	C250.617615,483.807861 245.751572,483.512695 240.004608,483.361237
z"/>
<path fill="#F09837" opacity="1.000000" stroke="none"
	d="
M753.823608,362.548370
	C740.942383,371.572998 733.627502,383.632599 730.941284,398.805176
	C728.169189,414.462097 733.246521,429.004639 736.539856,443.857910
	C738.433533,452.398346 741.044250,461.066711 741.054443,469.680145
	C741.078064,489.700684 722.085571,502.913208 703.352295,496.890656
	C691.996765,493.239960 683.709106,479.675659 685.239746,465.584717
	C686.292664,455.891846 688.583069,446.325256 690.480713,436.733978
	C694.332642,417.264893 692.173828,399.084167 679.744507,382.825043
	C668.961853,368.720001 654.022339,364.127625 637.209473,364.058899
	C532.556519,363.631012 427.903198,363.295105 323.249908,362.949921
	C313.251617,362.916931 303.246796,363.251831 293.257019,362.977722
	C288.513397,362.847565 283.798126,361.684601 278.723572,360.880737
	C272.027130,356.445709 267.230682,350.926361 264.582245,343.576111
	C261.148193,334.045624 265.356110,325.029083 274.403046,320.474701
	C280.838074,317.235199 286.984589,313.117371 292.568268,308.546692
	C312.600067,292.149017 335.136688,288.297150 359.989410,293.484924
	C370.179565,295.612030 380.551819,297.101501 390.916656,298.090546
	C401.153656,299.067413 410.799469,295.680084 419.488831,290.720123
	C441.100769,278.383789 462.514496,280.230865 484.462524,289.639801
	C495.098389,294.199341 506.148560,297.861115 517.173584,301.427063
	C531.044006,305.913269 544.733948,305.352692 557.569214,297.830658
	C571.509521,289.660980 586.380615,288.540436 601.873779,291.317535
	C616.095520,293.866760 629.231079,291.127319 641.443726,283.443085
	C653.329773,275.964264 665.740601,269.711609 680.034180,268.412048
	C683.669067,268.081604 687.334717,268.089478 691.882080,267.954285
	C703.538574,268.887787 714.274353,270.248718 724.036865,275.142090
	C731.826294,279.046478 739.230713,283.718842 746.806030,288.050323
	C752.116760,293.975464 758.297791,299.337219 762.569336,305.935120
	C773.798645,323.279938 771.408142,343.423523 757.292297,358.569580
	C756.165710,359.778351 755.064636,361.010834 753.823608,362.548370
z"/>
<path fill="#A47C4C" opacity="1.000000" stroke="none"
	d="
M746.954407,287.723511
	C739.230713,283.718842 731.826294,279.046478 724.036865,275.142090
	C714.274353,270.248718 703.538574,268.887787 692.337036,267.927582
	C702.413086,245.847824 712.682434,223.684357 723.525330,201.805191
	C732.225830,184.249008 741.386230,166.907867 750.830261,149.739532
	C754.409058,143.233566 759.014038,137.200119 763.745483,131.439407
	C773.393188,119.693214 787.666931,117.609261 800.895203,125.522659
	C813.025513,132.779236 818.132507,147.279419 812.108154,160.615829
	C803.566650,179.524368 794.595703,198.265091 785.072937,216.697632
	C772.796387,240.460373 759.793091,263.847656 746.954407,287.723511
z"/>
<path fill="#F19938" opacity="1.000000" stroke="none"
	d="
M651.929810,204.821198
	C642.596924,223.519699 623.760864,231.848236 604.658813,226.023361
	C586.357910,220.442780 574.593506,201.908646 577.113037,182.626434
	C579.274292,166.086136 592.994629,152.071884 610.979980,149.379440
	C625.917297,147.143280 642.808472,154.638794 651.241577,171.302338
	C656.740112,182.167313 657.006653,193.281036 651.929810,204.821198
z"/>
<path fill="#F19938" opacity="1.000000" stroke="none"
	d="
M489.608276,124.251251
	C503.077515,133.266296 508.440430,144.857971 505.264069,159.324127
	C502.160797,173.457718 493.157532,182.234299 479.032135,185.420990
	C463.879395,188.839493 447.156464,178.839066 442.063629,163.562180
	C436.784210,147.725632 443.951813,130.268204 458.281769,123.486938
	C468.787750,118.515259 479.055054,118.497665 489.608276,124.251251
z"/>
<path fill="#F19938" opacity="1.000000" stroke="none"
	d="
M369.243164,243.449036
	C363.157867,227.018341 369.538452,213.321762 385.094543,209.565674
	C394.282043,207.347321 402.292847,210.287811 408.391144,217.433258
	C414.828827,224.976395 415.862244,233.677948 411.722260,242.586380
	C407.855286,250.907318 401.090088,255.471924 391.740570,256.062714
	C381.647614,256.700470 374.589844,252.014709 369.243164,243.449036
z"/>
<path fill="#F19A39" opacity="1.000000" stroke="none"
	d="
M529.765137,263.347107
	C519.650696,260.256805 514.741455,253.214874 515.985291,244.017624
	C516.994385,236.556152 523.954224,230.409241 531.832397,230.021454
	C541.433960,229.548828 549.838318,237.457275 549.613647,246.753586
	C549.372864,256.720673 540.656128,264.198273 529.765137,263.347107
z"/>
</svg>
